solid OpenSCAD_Model
  facet normal -1 0 0
    outer loop
      vertex -16.5 -16.5 0
      vertex -16.5 16.5 10
      vertex -16.5 16.5 0
    endloop
  endfacet
  facet normal -1 -0 0
    outer loop
      vertex -16.5 16.5 10
      vertex -16.5 -16.5 0
      vertex -16.5 -16.5 10
    endloop
  endfacet
  facet normal -0 0 1
    outer loop
      vertex -13.5 13.5 3
      vertex 13.5 -13.5 3
      vertex 13.5 13.5 3
    endloop
  endfacet
  facet normal 0 0 1
    outer loop
      vertex 13.5 -13.5 3
      vertex -13.5 13.5 3
      vertex -13.5 -13.5 3
    endloop
  endfacet
  facet normal 1 -0 0
    outer loop
      vertex 16.5 -16.5 10
      vertex 16.5 16.5 0
      vertex 16.5 16.5 10
    endloop
  endfacet
  facet normal 1 0 0
    outer loop
      vertex 16.5 16.5 0
      vertex 16.5 -16.5 10
      vertex 16.5 -16.5 0
    endloop
  endfacet
  facet normal 0 0 -1
    outer loop
      vertex -16.5 -16.5 0
      vertex 16.5 16.5 0
      vertex 16.5 -16.5 0
    endloop
  endfacet
  facet normal -0 0 -1
    outer loop
      vertex 16.5 16.5 0
      vertex -16.5 -16.5 0
      vertex -16.5 16.5 0
    endloop
  endfacet
  facet normal 0 -1 0
    outer loop
      vertex -16.5 -16.5 0
      vertex 16.5 -16.5 10
      vertex -16.5 -16.5 10
    endloop
  endfacet
  facet normal 0 -1 -0
    outer loop
      vertex 16.5 -16.5 10
      vertex -16.5 -16.5 0
      vertex 16.5 -16.5 0
    endloop
  endfacet
  facet normal 0 1 -0
    outer loop
      vertex 16.5 16.5 0
      vertex -16.5 16.5 10
      vertex 16.5 16.5 10
    endloop
  endfacet
  facet normal 0 1 0
    outer loop
      vertex -16.5 16.5 10
      vertex 16.5 16.5 0
      vertex -16.5 16.5 0
    endloop
  endfacet
  facet normal 0 0 1
    outer loop
      vertex 16.5 16.5 10
      vertex 13.5 13.5 10
      vertex 16.5 -16.5 10
    endloop
  endfacet
  facet normal 0 0 1
    outer loop
      vertex 16.5 16.5 10
      vertex -13.5 13.5 10
      vertex 13.5 13.5 10
    endloop
  endfacet
  facet normal 0 0 1
    outer loop
      vertex -13.5 13.5 10
      vertex -16.5 16.5 10
      vertex -13.5 -13.5 10
    endloop
  endfacet
  facet normal -0 0 1
    outer loop
      vertex -16.5 16.5 10
      vertex -13.5 13.5 10
      vertex 16.5 16.5 10
    endloop
  endfacet
  facet normal -0 0 1
    outer loop
      vertex 13.5 -13.5 10
      vertex 16.5 -16.5 10
      vertex 13.5 13.5 10
    endloop
  endfacet
  facet normal -0 0 1
    outer loop
      vertex -13.5 -13.5 10
      vertex 16.5 -16.5 10
      vertex 13.5 -13.5 10
    endloop
  endfacet
  facet normal 0 0 1
    outer loop
      vertex -13.5 -13.5 10
      vertex -16.5 -16.5 10
      vertex 16.5 -16.5 10
    endloop
  endfacet
  facet normal 0 0 1
    outer loop
      vertex -16.5 -16.5 10
      vertex -13.5 -13.5 10
      vertex -16.5 16.5 10
    endloop
  endfacet
  facet normal 0 -1 0
    outer loop
      vertex -13.5 13.5 3
      vertex 13.5 13.5 10
      vertex -13.5 13.5 10
    endloop
  endfacet
  facet normal 0 -1 -0
    outer loop
      vertex 13.5 13.5 10
      vertex -13.5 13.5 3
      vertex 13.5 13.5 3
    endloop
  endfacet
  facet normal 0 1 -0
    outer loop
      vertex 13.5 -13.5 3
      vertex -13.5 -13.5 10
      vertex 13.5 -13.5 10
    endloop
  endfacet
  facet normal 0 1 0
    outer loop
      vertex -13.5 -13.5 10
      vertex 13.5 -13.5 3
      vertex -13.5 -13.5 3
    endloop
  endfacet
  facet normal -1 0 0
    outer loop
      vertex 13.5 -13.5 3
      vertex 13.5 13.5 10
      vertex 13.5 13.5 3
    endloop
  endfacet
  facet normal -1 -0 0
    outer loop
      vertex 13.5 13.5 10
      vertex 13.5 -13.5 3
      vertex 13.5 -13.5 10
    endloop
  endfacet
  facet normal 1 -0 0
    outer loop
      vertex -13.5 -13.5 10
      vertex -13.5 13.5 3
      vertex -13.5 13.5 10
    endloop
  endfacet
  facet normal 1 0 0
    outer loop
      vertex -13.5 13.5 3
      vertex -13.5 -13.5 10
      vertex -13.5 -13.5 3
    endloop
  endfacet
endsolid OpenSCAD_Model
