solid OpenSCAD_Model
  facet normal -1 0 0
    outer loop
      vertex -14 -14 0
      vertex -14 14 20
      vertex -14 14 0
    endloop
  endfacet
  facet normal -1 -0 0
    outer loop
      vertex -14 14 20
      vertex -14 -14 0
      vertex -14 -14 20
    endloop
  endfacet
  facet normal -0 0 1
    outer loop
      vertex -11 11 3
      vertex 11 -11 3
      vertex 11 11 3
    endloop
  endfacet
  facet normal 0 0 1
    outer loop
      vertex 11 -11 3
      vertex -11 11 3
      vertex -11 -11 3
    endloop
  endfacet
  facet normal 1 -0 0
    outer loop
      vertex 14 -14 20
      vertex 14 14 0
      vertex 14 14 20
    endloop
  endfacet
  facet normal 1 0 0
    outer loop
      vertex 14 14 0
      vertex 14 -14 20
      vertex 14 -14 0
    endloop
  endfacet
  facet normal 0 1 -0
    outer loop
      vertex 14 14 0
      vertex -14 14 20
      vertex 14 14 20
    endloop
  endfacet
  facet normal 0 1 0
    outer loop
      vertex -14 14 20
      vertex 14 14 0
      vertex -14 14 0
    endloop
  endfacet
  facet normal 0 0 -1
    outer loop
      vertex -14 -14 0
      vertex 14 14 0
      vertex 14 -14 0
    endloop
  endfacet
  facet normal -0 0 -1
    outer loop
      vertex 14 14 0
      vertex -14 -14 0
      vertex -14 14 0
    endloop
  endfacet
  facet normal 0 -1 0
    outer loop
      vertex -14 -14 0
      vertex 14 -14 20
      vertex -14 -14 20
    endloop
  endfacet
  facet normal 0 -1 -0
    outer loop
      vertex 14 -14 20
      vertex -14 -14 0
      vertex 14 -14 0
    endloop
  endfacet
  facet normal 0 0 1
    outer loop
      vertex 14 14 20
      vertex 11 11 20
      vertex 14 -14 20
    endloop
  endfacet
  facet normal 0 0 1
    outer loop
      vertex 14 14 20
      vertex -11 11 20
      vertex 11 11 20
    endloop
  endfacet
  facet normal 0 0 1
    outer loop
      vertex -11 11 20
      vertex -14 14 20
      vertex -11 -11 20
    endloop
  endfacet
  facet normal -0 0 1
    outer loop
      vertex -14 14 20
      vertex -11 11 20
      vertex 14 14 20
    endloop
  endfacet
  facet normal -0 0 1
    outer loop
      vertex 11 -11 20
      vertex 14 -14 20
      vertex 11 11 20
    endloop
  endfacet
  facet normal -0 0 1
    outer loop
      vertex -11 -11 20
      vertex 14 -14 20
      vertex 11 -11 20
    endloop
  endfacet
  facet normal 0 0 1
    outer loop
      vertex -11 -11 20
      vertex -14 -14 20
      vertex 14 -14 20
    endloop
  endfacet
  facet normal 0 0 1
    outer loop
      vertex -14 -14 20
      vertex -11 -11 20
      vertex -14 14 20
    endloop
  endfacet
  facet normal 0 -1 0
    outer loop
      vertex -11 11 3
      vertex 11 11 20
      vertex -11 11 20
    endloop
  endfacet
  facet normal 0 -1 -0
    outer loop
      vertex 11 11 20
      vertex -11 11 3
      vertex 11 11 3
    endloop
  endfacet
  facet normal 0 1 -0
    outer loop
      vertex 11 -11 3
      vertex -11 -11 20
      vertex 11 -11 20
    endloop
  endfacet
  facet normal 0 1 0
    outer loop
      vertex -11 -11 20
      vertex 11 -11 3
      vertex -11 -11 3
    endloop
  endfacet
  facet normal -1 0 0
    outer loop
      vertex 11 -11 3
      vertex 11 11 20
      vertex 11 11 3
    endloop
  endfacet
  facet normal -1 -0 0
    outer loop
      vertex 11 11 20
      vertex 11 -11 3
      vertex 11 -11 20
    endloop
  endfacet
  facet normal 1 -0 0
    outer loop
      vertex -11 -11 20
      vertex -11 11 3
      vertex -11 11 20
    endloop
  endfacet
  facet normal 1 0 0
    outer loop
      vertex -11 11 3
      vertex -11 -11 20
      vertex -11 -11 3
    endloop
  endfacet
endsolid OpenSCAD_Model
