solid OpenSCAD_Model
  facet normal -1 0 0
    outer loop
      vertex -16.5 19.0981 10
      vertex -16.5 28.047 31.5
      vertex -16.5 30.6451 30
    endloop
  endfacet
  facet normal -1 0 0
    outer loop
      vertex -16.5 28.047 31.5
      vertex -16.5 19.0981 10
      vertex -16.5 16.5 11.5
    endloop
  endfacet
  facet normal -0 0.499997 0.866027
    outer loop
      vertex -16.5 30.6451 30
      vertex 16.5 28.047 31.5
      vertex 16.5 30.6451 30
    endloop
  endfacet
  facet normal 0 0.499997 0.866027
    outer loop
      vertex 16.5 28.047 31.5
      vertex -16.5 30.6451 30
      vertex -16.5 28.047 31.5
    endloop
  endfacet
  facet normal 1 0 0
    outer loop
      vertex 16.5 28.047 31.5
      vertex 16.5 19.0981 10
      vertex 16.5 30.6451 30
    endloop
  endfacet
  facet normal 1 0 -0
    outer loop
      vertex 16.5 19.0981 10
      vertex 16.5 28.047 31.5
      vertex 16.5 16.5 11.5
    endloop
  endfacet
  facet normal 0 -0.499997 -0.866027
    outer loop
      vertex -16.5 16.5 11.5
      vertex 16.5 19.0981 10
      vertex 16.5 16.5 11.5
    endloop
  endfacet
  facet normal -0 -0.499997 -0.866027
    outer loop
      vertex 16.5 19.0981 10
      vertex -16.5 16.5 11.5
      vertex -16.5 19.0981 10
    endloop
  endfacet
  facet normal 0 -0.866026 0.5
    outer loop
      vertex -16.5 16.5 11.5
      vertex 16.5 28.047 31.5
      vertex -16.5 28.047 31.5
    endloop
  endfacet
  facet normal 0 -0.866026 0.5
    outer loop
      vertex 16.5 28.047 31.5
      vertex -16.5 16.5 11.5
      vertex 16.5 16.5 11.5
    endloop
  endfacet
  facet normal 0 0.866026 -0.5
    outer loop
      vertex 16.5 19.0981 10
      vertex -16.5 30.6451 30
      vertex 16.5 30.6451 30
    endloop
  endfacet
  facet normal 0 0.866026 -0.5
    outer loop
      vertex -16.5 30.6451 30
      vertex 16.5 19.0981 10
      vertex -16.5 19.0981 10
    endloop
  endfacet
  facet normal 1 0 0
    outer loop
      vertex 16.5 -28.047 31.5
      vertex 16.5 -19.0981 10
      vertex 16.5 -16.5 11.5
    endloop
  endfacet
  facet normal 1 0 0
    outer loop
      vertex 16.5 -19.0981 10
      vertex 16.5 -28.047 31.5
      vertex 16.5 -30.6451 30
    endloop
  endfacet
  facet normal 0 -0.499997 0.866027
    outer loop
      vertex -16.5 -28.047 31.5
      vertex 16.5 -30.6451 30
      vertex 16.5 -28.047 31.5
    endloop
  endfacet
  facet normal 0 -0.499997 0.866027
    outer loop
      vertex 16.5 -30.6451 30
      vertex -16.5 -28.047 31.5
      vertex -16.5 -30.6451 30
    endloop
  endfacet
  facet normal -1 0 0
    outer loop
      vertex -16.5 -19.0981 10
      vertex -16.5 -28.047 31.5
      vertex -16.5 -16.5 11.5
    endloop
  endfacet
  facet normal -1 0 -0
    outer loop
      vertex -16.5 -28.047 31.5
      vertex -16.5 -19.0981 10
      vertex -16.5 -30.6451 30
    endloop
  endfacet
  facet normal 0 0.866026 0.5
    outer loop
      vertex 16.5 -16.5 11.5
      vertex -16.5 -28.047 31.5
      vertex 16.5 -28.047 31.5
    endloop
  endfacet
  facet normal 0 0.866026 0.5
    outer loop
      vertex -16.5 -28.047 31.5
      vertex 16.5 -16.5 11.5
      vertex -16.5 -16.5 11.5
    endloop
  endfacet
  facet normal 0 0.499997 -0.866027
    outer loop
      vertex -16.5 -19.0981 10
      vertex 16.5 -16.5 11.5
      vertex 16.5 -19.0981 10
    endloop
  endfacet
  facet normal 0 0.499997 -0.866027
    outer loop
      vertex 16.5 -16.5 11.5
      vertex -16.5 -19.0981 10
      vertex -16.5 -16.5 11.5
    endloop
  endfacet
  facet normal 0 -0.866026 -0.5
    outer loop
      vertex -16.5 -19.0981 10
      vertex 16.5 -30.6451 30
      vertex -16.5 -30.6451 30
    endloop
  endfacet
  facet normal 0 -0.866026 -0.5
    outer loop
      vertex 16.5 -30.6451 30
      vertex -16.5 -19.0981 10
      vertex 16.5 -19.0981 10
    endloop
  endfacet
  facet normal 0.499997 0 0.866027
    outer loop
      vertex 28.047 16.5 31.5
      vertex 30.6451 -16.5 30
      vertex 30.6451 16.5 30
    endloop
  endfacet
  facet normal 0.499997 0 0.866027
    outer loop
      vertex 30.6451 -16.5 30
      vertex 28.047 16.5 31.5
      vertex 28.047 -16.5 31.5
    endloop
  endfacet
  facet normal 0.866026 0 -0.5
    outer loop
      vertex 30.6451 -16.5 30
      vertex 19.0981 16.5 10
      vertex 30.6451 16.5 30
    endloop
  endfacet
  facet normal 0.866026 0 -0.5
    outer loop
      vertex 19.0981 16.5 10
      vertex 30.6451 -16.5 30
      vertex 19.0981 -16.5 10
    endloop
  endfacet
  facet normal -0.499997 0 -0.866027
    outer loop
      vertex 16.5 -16.5 11.5
      vertex 19.0981 16.5 10
      vertex 19.0981 -16.5 10
    endloop
  endfacet
  facet normal -0.499997 0 -0.866027
    outer loop
      vertex 19.0981 16.5 10
      vertex 16.5 -16.5 11.5
      vertex 16.5 16.5 11.5
    endloop
  endfacet
  facet normal 0 -1 0
    outer loop
      vertex 16.5 -16.5 11.5
      vertex 30.6451 -16.5 30
      vertex 28.047 -16.5 31.5
    endloop
  endfacet
  facet normal 0 -1 0
    outer loop
      vertex 30.6451 -16.5 30
      vertex 16.5 -16.5 11.5
      vertex 19.0981 -16.5 10
    endloop
  endfacet
  facet normal -0.866026 0 0.5
    outer loop
      vertex 16.5 -16.5 11.5
      vertex 28.047 16.5 31.5
      vertex 16.5 16.5 11.5
    endloop
  endfacet
  facet normal -0.866026 0 0.5
    outer loop
      vertex 28.047 16.5 31.5
      vertex 16.5 -16.5 11.5
      vertex 28.047 -16.5 31.5
    endloop
  endfacet
  facet normal 0 1 0
    outer loop
      vertex 30.6451 16.5 30
      vertex 16.5 16.5 11.5
      vertex 28.047 16.5 31.5
    endloop
  endfacet
  facet normal -0 1 0
    outer loop
      vertex 16.5 16.5 11.5
      vertex 30.6451 16.5 30
      vertex 19.0981 16.5 10
    endloop
  endfacet
  facet normal -0.499997 0 0.866027
    outer loop
      vertex -30.6451 16.5 30
      vertex -28.047 -16.5 31.5
      vertex -28.047 16.5 31.5
    endloop
  endfacet
  facet normal -0.499997 0 0.866027
    outer loop
      vertex -28.047 -16.5 31.5
      vertex -30.6451 16.5 30
      vertex -30.6451 -16.5 30
    endloop
  endfacet
  facet normal 0 -1 0
    outer loop
      vertex -30.6451 -16.5 30
      vertex -16.5 -16.5 11.5
      vertex -28.047 -16.5 31.5
    endloop
  endfacet
  facet normal -0 -1 0
    outer loop
      vertex -16.5 -16.5 11.5
      vertex -30.6451 -16.5 30
      vertex -19.0981 -16.5 10
    endloop
  endfacet
  facet normal 0 1 0
    outer loop
      vertex -16.5 16.5 11.5
      vertex -30.6451 16.5 30
      vertex -28.047 16.5 31.5
    endloop
  endfacet
  facet normal 0 1 0
    outer loop
      vertex -30.6451 16.5 30
      vertex -16.5 16.5 11.5
      vertex -19.0981 16.5 10
    endloop
  endfacet
  facet normal -0.866026 0 -0.5
    outer loop
      vertex -19.0981 -16.5 10
      vertex -30.6451 16.5 30
      vertex -19.0981 16.5 10
    endloop
  endfacet
  facet normal -0.866026 -0 -0.5
    outer loop
      vertex -30.6451 16.5 30
      vertex -19.0981 -16.5 10
      vertex -30.6451 -16.5 30
    endloop
  endfacet
  facet normal 0.499997 0 -0.866027
    outer loop
      vertex -19.0981 -16.5 10
      vertex -16.5 16.5 11.5
      vertex -16.5 -16.5 11.5
    endloop
  endfacet
  facet normal 0.499997 0 -0.866027
    outer loop
      vertex -16.5 16.5 11.5
      vertex -19.0981 -16.5 10
      vertex -19.0981 16.5 10
    endloop
  endfacet
  facet normal 0.866026 -0 0.5
    outer loop
      vertex -28.047 -16.5 31.5
      vertex -16.5 16.5 11.5
      vertex -28.047 16.5 31.5
    endloop
  endfacet
  facet normal 0.866026 0 0.5
    outer loop
      vertex -16.5 16.5 11.5
      vertex -28.047 -16.5 31.5
      vertex -16.5 -16.5 11.5
    endloop
  endfacet
endsolid OpenSCAD_Model
