solid OpenSCAD_Model
  facet normal -1 0 0
    outer loop
      vertex -75 -37.5 -3
      vertex -75 37.5 0
      vertex -75 37.5 -3
    endloop
  endfacet
  facet normal -1 -0 0
    outer loop
      vertex -75 37.5 0
      vertex -75 -37.5 -3
      vertex -75 -37.5 0
    endloop
  endfacet
  facet normal -0 0 1
    outer loop
      vertex -75 37.5 0
      vertex 75 -37.5 0
      vertex 75 37.5 0
    endloop
  endfacet
  facet normal 0 0 1
    outer loop
      vertex 75 -37.5 0
      vertex -75 37.5 0
      vertex -75 -37.5 0
    endloop
  endfacet
  facet normal 1 -0 0
    outer loop
      vertex 75 -37.5 0
      vertex 75 37.5 -3
      vertex 75 37.5 0
    endloop
  endfacet
  facet normal 1 0 0
    outer loop
      vertex 75 37.5 -3
      vertex 75 -37.5 0
      vertex 75 -37.5 -3
    endloop
  endfacet
  facet normal 0 1 -0
    outer loop
      vertex 75 37.5 -3
      vertex -75 37.5 0
      vertex 75 37.5 0
    endloop
  endfacet
  facet normal 0 1 0
    outer loop
      vertex -75 37.5 0
      vertex 75 37.5 -3
      vertex -75 37.5 -3
    endloop
  endfacet
  facet normal 0 0 -1
    outer loop
      vertex -64.0489 27.191 -3
      vertex 64.0489 27.191 -3
      vertex -64.0489 -27.191 -3
    endloop
  endfacet
  facet normal 0 0 -1
    outer loop
      vertex 64.0489 27.191 -3
      vertex -64.0489 27.191 -3
      vertex -64 27.5 -3
    endloop
  endfacet
  facet normal 0 0 -1
    outer loop
      vertex -64.191 -26.9122 -3
      vertex -64.0489 27.191 -3
      vertex -64.0489 -27.191 -3
    endloop
  endfacet
  facet normal 0 0 -1
    outer loop
      vertex -64.191 -26.9122 -3
      vertex -64.191 26.9122 -3
      vertex -64.0489 27.191 -3
    endloop
  endfacet
  facet normal 0 0 -1
    outer loop
      vertex -64.4122 -26.691 -3
      vertex -64.191 26.9122 -3
      vertex -64.191 -26.9122 -3
    endloop
  endfacet
  facet normal 0 0 -1
    outer loop
      vertex -64.4122 -26.691 -3
      vertex -64.4122 26.691 -3
      vertex -64.191 26.9122 -3
    endloop
  endfacet
  facet normal 0 0 -1
    outer loop
      vertex -64.691 -26.5489 -3
      vertex -64.4122 26.691 -3
      vertex -64.4122 -26.691 -3
    endloop
  endfacet
  facet normal 0 0 -1
    outer loop
      vertex -64.691 -26.5489 -3
      vertex -64.691 26.5489 -3
      vertex -64.4122 26.691 -3
    endloop
  endfacet
  facet normal 0 0 -1
    outer loop
      vertex -65 -26.5 -3
      vertex -64.691 26.5489 -3
      vertex -64.691 -26.5489 -3
    endloop
  endfacet
  facet normal 0 0 -1
    outer loop
      vertex -65 -26.5 -3
      vertex -65 26.5 -3
      vertex -64.691 26.5489 -3
    endloop
  endfacet
  facet normal 0 0 -1
    outer loop
      vertex -65.309 -26.5489 -3
      vertex -65 26.5 -3
      vertex -65 -26.5 -3
    endloop
  endfacet
  facet normal 0 0 -1
    outer loop
      vertex -65.309 -26.5489 -3
      vertex -65.309 26.5489 -3
      vertex -65 26.5 -3
    endloop
  endfacet
  facet normal 0 0 -1
    outer loop
      vertex -65.5878 -26.691 -3
      vertex -65.309 26.5489 -3
      vertex -65.309 -26.5489 -3
    endloop
  endfacet
  facet normal 0 0 -1
    outer loop
      vertex -65.5878 -26.691 -3
      vertex -65.5878 26.691 -3
      vertex -65.309 26.5489 -3
    endloop
  endfacet
  facet normal 0 0 -1
    outer loop
      vertex -65.809 -26.9122 -3
      vertex -65.5878 26.691 -3
      vertex -65.5878 -26.691 -3
    endloop
  endfacet
  facet normal 0 0 -1
    outer loop
      vertex -65.809 -26.9122 -3
      vertex -65.809 26.9122 -3
      vertex -65.5878 26.691 -3
    endloop
  endfacet
  facet normal 0 0 -1
    outer loop
      vertex -75 -37.5 -3
      vertex -65.809 -26.9122 -3
      vertex -65.9511 -27.191 -3
    endloop
  endfacet
  facet normal -0 0 -1
    outer loop
      vertex -65.809 -26.9122 -3
      vertex -75 -37.5 -3
      vertex -65.809 26.9122 -3
    endloop
  endfacet
  facet normal 0 0 -1
    outer loop
      vertex -75 -37.5 -3
      vertex -65.9511 -27.191 -3
      vertex -66 -27.5 -3
    endloop
  endfacet
  facet normal 0 0 -1
    outer loop
      vertex -75 37.5 -3
      vertex -65.809 26.9122 -3
      vertex -75 -37.5 -3
    endloop
  endfacet
  facet normal 0 0 -1
    outer loop
      vertex 75 -37.5 -3
      vertex 65.809 -26.9122 -3
      vertex 75 37.5 -3
    endloop
  endfacet
  facet normal 0 0 -1
    outer loop
      vertex 75 37.5 -3
      vertex 65.9511 27.191 -3
      vertex 66 27.5 -3
    endloop
  endfacet
  facet normal 0 0 -1
    outer loop
      vertex 65.809 26.9122 -3
      vertex 75 37.5 -3
      vertex 65.809 -26.9122 -3
    endloop
  endfacet
  facet normal 0 0 -1
    outer loop
      vertex 75 37.5 -3
      vertex 65.809 26.9122 -3
      vertex 65.9511 27.191 -3
    endloop
  endfacet
  facet normal 0 0 -1
    outer loop
      vertex 65.5878 -26.691 -3
      vertex 65.809 26.9122 -3
      vertex 65.809 -26.9122 -3
    endloop
  endfacet
  facet normal 0 0 -1
    outer loop
      vertex 65.5878 -26.691 -3
      vertex 65.5878 26.691 -3
      vertex 65.809 26.9122 -3
    endloop
  endfacet
  facet normal 0 0 -1
    outer loop
      vertex 65.309 -26.5489 -3
      vertex 65.5878 26.691 -3
      vertex 65.5878 -26.691 -3
    endloop
  endfacet
  facet normal 0 0 -1
    outer loop
      vertex 65.309 -26.5489 -3
      vertex 65.309 26.5489 -3
      vertex 65.5878 26.691 -3
    endloop
  endfacet
  facet normal 0 0 -1
    outer loop
      vertex 65 -26.5 -3
      vertex 65.309 26.5489 -3
      vertex 65.309 -26.5489 -3
    endloop
  endfacet
  facet normal 0 0 -1
    outer loop
      vertex 65 -26.5 -3
      vertex 65 26.5 -3
      vertex 65.309 26.5489 -3
    endloop
  endfacet
  facet normal 0 0 -1
    outer loop
      vertex 64.691 -26.5489 -3
      vertex 65 26.5 -3
      vertex 65 -26.5 -3
    endloop
  endfacet
  facet normal 0 0 -1
    outer loop
      vertex 64.691 -26.5489 -3
      vertex 64.691 26.5489 -3
      vertex 65 26.5 -3
    endloop
  endfacet
  facet normal 0 0 -1
    outer loop
      vertex 64.4122 -26.691 -3
      vertex 64.691 26.5489 -3
      vertex 64.691 -26.5489 -3
    endloop
  endfacet
  facet normal 0 0 -1
    outer loop
      vertex 64.4122 -26.691 -3
      vertex 64.4122 26.691 -3
      vertex 64.691 26.5489 -3
    endloop
  endfacet
  facet normal 0 0 -1
    outer loop
      vertex 64.191 -26.9122 -3
      vertex 64.4122 26.691 -3
      vertex 64.4122 -26.691 -3
    endloop
  endfacet
  facet normal 0 0 -1
    outer loop
      vertex 64.191 -26.9122 -3
      vertex 64.191 26.9122 -3
      vertex 64.4122 26.691 -3
    endloop
  endfacet
  facet normal 0 0 -1
    outer loop
      vertex 64.0489 -27.191 -3
      vertex 64.191 26.9122 -3
      vertex 64.191 -26.9122 -3
    endloop
  endfacet
  facet normal 0 0 -1
    outer loop
      vertex 64.0489 -27.191 -3
      vertex 64.0489 27.191 -3
      vertex 64.191 26.9122 -3
    endloop
  endfacet
  facet normal 0 0 -1
    outer loop
      vertex -64 -27.5 -3
      vertex 64.0489 -27.191 -3
      vertex 64 -27.5 -3
    endloop
  endfacet
  facet normal 0 0 -1
    outer loop
      vertex -64.0489 -27.191 -3
      vertex 64.0489 -27.191 -3
      vertex -64 -27.5 -3
    endloop
  endfacet
  facet normal 0 0 -1
    outer loop
      vertex 65.9511 -27.191 -3
      vertex 75 -37.5 -3
      vertex 66 -27.5 -3
    endloop
  endfacet
  facet normal 0 0 -1
    outer loop
      vertex 75 -37.5 -3
      vertex 65.9511 -27.809 -3
      vertex 66 -27.5 -3
    endloop
  endfacet
  facet normal 0 0 -1
    outer loop
      vertex 75 -37.5 -3
      vertex 65.809 -28.0878 -3
      vertex 65.9511 -27.809 -3
    endloop
  endfacet
  facet normal 0 0 -1
    outer loop
      vertex 75 -37.5 -3
      vertex 65.5878 -28.309 -3
      vertex 65.809 -28.0878 -3
    endloop
  endfacet
  facet normal 0 0 -1
    outer loop
      vertex 75 -37.5 -3
      vertex 65.309 -28.4511 -3
      vertex 65.5878 -28.309 -3
    endloop
  endfacet
  facet normal 0 0 -1
    outer loop
      vertex 75 -37.5 -3
      vertex 65 -28.5 -3
      vertex 65.309 -28.4511 -3
    endloop
  endfacet
  facet normal 0 0 -1
    outer loop
      vertex 75 -37.5 -3
      vertex 64.691 -28.4511 -3
      vertex 65 -28.5 -3
    endloop
  endfacet
  facet normal 0 0 -1
    outer loop
      vertex 75 -37.5 -3
      vertex 64.4122 -28.309 -3
      vertex 64.691 -28.4511 -3
    endloop
  endfacet
  facet normal 0 0 -1
    outer loop
      vertex 64.0489 -27.191 -3
      vertex -64.0489 -27.191 -3
      vertex 64.0489 27.191 -3
    endloop
  endfacet
  facet normal 0 0 -1
    outer loop
      vertex 64.0489 -27.809 -3
      vertex -64 -27.5 -3
      vertex 64 -27.5 -3
    endloop
  endfacet
  facet normal 0 0 -1
    outer loop
      vertex -64.0489 -27.809 -3
      vertex 64.0489 -27.809 -3
      vertex 64.191 -28.0878 -3
    endloop
  endfacet
  facet normal 0 0 -1
    outer loop
      vertex -64.191 -28.0878 -3
      vertex 64.191 -28.0878 -3
      vertex 64.4122 -28.309 -3
    endloop
  endfacet
  facet normal 0 0 -1
    outer loop
      vertex -64.4122 -28.309 -3
      vertex 64.4122 -28.309 -3
      vertex 75 -37.5 -3
    endloop
  endfacet
  facet normal 0 0 -1
    outer loop
      vertex 64.0489 -27.809 -3
      vertex -64.0489 -27.809 -3
      vertex -64 -27.5 -3
    endloop
  endfacet
  facet normal 0 0 -1
    outer loop
      vertex 64.191 -28.0878 -3
      vertex -64.191 -28.0878 -3
      vertex -64.0489 -27.809 -3
    endloop
  endfacet
  facet normal 0 0 -1
    outer loop
      vertex 64.4122 -28.309 -3
      vertex -64.4122 -28.309 -3
      vertex -64.191 -28.0878 -3
    endloop
  endfacet
  facet normal 0 0 -1
    outer loop
      vertex -75 -37.5 -3
      vertex -64.4122 -28.309 -3
      vertex 75 -37.5 -3
    endloop
  endfacet
  facet normal 0 0 -1
    outer loop
      vertex -64.4122 -28.309 -3
      vertex -75 -37.5 -3
      vertex -64.691 -28.4511 -3
    endloop
  endfacet
  facet normal 0 0 -1
    outer loop
      vertex -65.809 26.9122 -3
      vertex -75 37.5 -3
      vertex -65.9511 27.191 -3
    endloop
  endfacet
  facet normal -0 0 -1
    outer loop
      vertex -65.9511 -27.809 -3
      vertex -75 -37.5 -3
      vertex -66 -27.5 -3
    endloop
  endfacet
  facet normal -0 0 -1
    outer loop
      vertex -65.809 -28.0878 -3
      vertex -75 -37.5 -3
      vertex -65.9511 -27.809 -3
    endloop
  endfacet
  facet normal -0 0 -1
    outer loop
      vertex -65.5878 -28.309 -3
      vertex -75 -37.5 -3
      vertex -65.809 -28.0878 -3
    endloop
  endfacet
  facet normal -0 0 -1
    outer loop
      vertex -65.309 -28.4511 -3
      vertex -75 -37.5 -3
      vertex -65.5878 -28.309 -3
    endloop
  endfacet
  facet normal -0 0 -1
    outer loop
      vertex -65 -28.5 -3
      vertex -75 -37.5 -3
      vertex -65.309 -28.4511 -3
    endloop
  endfacet
  facet normal 0 0 -1
    outer loop
      vertex -64.691 -28.4511 -3
      vertex -75 -37.5 -3
      vertex -65 -28.5 -3
    endloop
  endfacet
  facet normal 0 0 -1
    outer loop
      vertex 65.809 -26.9122 -3
      vertex 75 -37.5 -3
      vertex 65.9511 -27.191 -3
    endloop
  endfacet
  facet normal 0 0 -1
    outer loop
      vertex 65.9511 27.809 -3
      vertex 75 37.5 -3
      vertex 66 27.5 -3
    endloop
  endfacet
  facet normal 0 0 -1
    outer loop
      vertex 65.809 28.0878 -3
      vertex 75 37.5 -3
      vertex 65.9511 27.809 -3
    endloop
  endfacet
  facet normal 0 0 -1
    outer loop
      vertex 65.5878 28.309 -3
      vertex 75 37.5 -3
      vertex 65.809 28.0878 -3
    endloop
  endfacet
  facet normal 0 0 -1
    outer loop
      vertex 65.309 28.4511 -3
      vertex 75 37.5 -3
      vertex 65.5878 28.309 -3
    endloop
  endfacet
  facet normal 0 0 -1
    outer loop
      vertex 65 28.5 -3
      vertex 75 37.5 -3
      vertex 65.309 28.4511 -3
    endloop
  endfacet
  facet normal 0 0 -1
    outer loop
      vertex 64.691 28.4511 -3
      vertex 75 37.5 -3
      vertex 65 28.5 -3
    endloop
  endfacet
  facet normal 0 0 -1
    outer loop
      vertex 64.4122 28.309 -3
      vertex 75 37.5 -3
      vertex 64.691 28.4511 -3
    endloop
  endfacet
  facet normal 0 0 -1
    outer loop
      vertex 64.0489 27.191 -3
      vertex -64 27.5 -3
      vertex 64 27.5 -3
    endloop
  endfacet
  facet normal 0 0 -1
    outer loop
      vertex 64 27.5 -3
      vertex -64 27.5 -3
      vertex 64.0489 27.809 -3
    endloop
  endfacet
  facet normal 0 0 -1
    outer loop
      vertex -64.0489 27.809 -3
      vertex 64.0489 27.809 -3
      vertex -64 27.5 -3
    endloop
  endfacet
  facet normal 0 0 -1
    outer loop
      vertex 64.0489 27.809 -3
      vertex -64.0489 27.809 -3
      vertex 64.191 28.0878 -3
    endloop
  endfacet
  facet normal 0 0 -1
    outer loop
      vertex -64.191 28.0878 -3
      vertex 64.191 28.0878 -3
      vertex -64.0489 27.809 -3
    endloop
  endfacet
  facet normal 0 0 -1
    outer loop
      vertex 64.191 28.0878 -3
      vertex -64.191 28.0878 -3
      vertex 64.4122 28.309 -3
    endloop
  endfacet
  facet normal 0 0 -1
    outer loop
      vertex -64.4122 28.309 -3
      vertex 64.4122 28.309 -3
      vertex -64.191 28.0878 -3
    endloop
  endfacet
  facet normal 0 0 -1
    outer loop
      vertex 64.4122 28.309 -3
      vertex -64.4122 28.309 -3
      vertex 75 37.5 -3
    endloop
  endfacet
  facet normal 0 0 -1
    outer loop
      vertex -75 37.5 -3
      vertex -64.4122 28.309 -3
      vertex -64.691 28.4511 -3
    endloop
  endfacet
  facet normal 0 0 -1
    outer loop
      vertex -75 37.5 -3
      vertex -64.691 28.4511 -3
      vertex -65 28.5 -3
    endloop
  endfacet
  facet normal 0 0 -1
    outer loop
      vertex -64.4122 28.309 -3
      vertex -75 37.5 -3
      vertex 75 37.5 -3
    endloop
  endfacet
  facet normal 0 0 -1
    outer loop
      vertex -65.309 28.4511 -3
      vertex -75 37.5 -3
      vertex -65 28.5 -3
    endloop
  endfacet
  facet normal 0 0 -1
    outer loop
      vertex -65.5878 28.309 -3
      vertex -75 37.5 -3
      vertex -65.309 28.4511 -3
    endloop
  endfacet
  facet normal 0 0 -1
    outer loop
      vertex -65.809 28.0878 -3
      vertex -75 37.5 -3
      vertex -65.5878 28.309 -3
    endloop
  endfacet
  facet normal 0 0 -1
    outer loop
      vertex -65.9511 27.809 -3
      vertex -75 37.5 -3
      vertex -65.809 28.0878 -3
    endloop
  endfacet
  facet normal 0 0 -1
    outer loop
      vertex -66 27.5 -3
      vertex -75 37.5 -3
      vertex -65.9511 27.809 -3
    endloop
  endfacet
  facet normal 0 0 -1
    outer loop
      vertex -65.9511 27.191 -3
      vertex -75 37.5 -3
      vertex -66 27.5 -3
    endloop
  endfacet
  facet normal 0 -1 0
    outer loop
      vertex -75 -37.5 -3
      vertex 75 -37.5 0
      vertex -75 -37.5 0
    endloop
  endfacet
  facet normal 0 -1 -0
    outer loop
      vertex 75 -37.5 0
      vertex -75 -37.5 -3
      vertex 75 -37.5 -3
    endloop
  endfacet
  facet normal 0.987708 0.156307 0
    outer loop
      vertex -64 -27.5 -3
      vertex -64.0489 -27.191 -75
      vertex -64.0489 -27.191 -3
    endloop
  endfacet
  facet normal 0.987708 0.156307 0
    outer loop
      vertex -64.0489 -27.191 -75
      vertex -64 -27.5 -3
      vertex -64 -27.5 -75
    endloop
  endfacet
  facet normal -0.987708 0.156307 0
    outer loop
      vertex -66 -27.5 -75
      vertex -65.9511 -27.191 -3
      vertex -65.9511 -27.191 -75
    endloop
  endfacet
  facet normal -0.987708 0.156307 0
    outer loop
      vertex -65.9511 -27.191 -3
      vertex -66 -27.5 -75
      vertex -66 -27.5 -3
    endloop
  endfacet
  facet normal -0.156307 0.987708 0
    outer loop
      vertex -65 -26.5 -75
      vertex -65.309 -26.5489 -3
      vertex -65 -26.5 -3
    endloop
  endfacet
  facet normal -0.156307 0.987708 0
    outer loop
      vertex -65.309 -26.5489 -3
      vertex -65 -26.5 -75
      vertex -65.309 -26.5489 -75
    endloop
  endfacet
  facet normal 0.156307 -0.987708 0
    outer loop
      vertex -65 -28.5 -75
      vertex -64.691 -28.4511 -3
      vertex -65 -28.5 -3
    endloop
  endfacet
  facet normal 0.156307 -0.987708 0
    outer loop
      vertex -64.691 -28.4511 -3
      vertex -65 -28.5 -75
      vertex -64.691 -28.4511 -75
    endloop
  endfacet
  facet normal 0.454103 -0.890949 0
    outer loop
      vertex -64.691 -28.4511 -75
      vertex -64.4122 -28.309 -3
      vertex -64.691 -28.4511 -3
    endloop
  endfacet
  facet normal 0.454103 -0.890949 0
    outer loop
      vertex -64.4122 -28.309 -3
      vertex -64.691 -28.4511 -75
      vertex -64.4122 -28.309 -75
    endloop
  endfacet
  facet normal 0.454103 0.890949 -0
    outer loop
      vertex -64.4122 -26.691 -75
      vertex -64.691 -26.5489 -3
      vertex -64.4122 -26.691 -3
    endloop
  endfacet
  facet normal 0.454103 0.890949 0
    outer loop
      vertex -64.691 -26.5489 -3
      vertex -64.4122 -26.691 -75
      vertex -64.691 -26.5489 -75
    endloop
  endfacet
  facet normal 0.890949 0.454103 0
    outer loop
      vertex -64.0489 -27.191 -3
      vertex -64.191 -26.9122 -75
      vertex -64.191 -26.9122 -3
    endloop
  endfacet
  facet normal 0.890949 0.454103 0
    outer loop
      vertex -64.191 -26.9122 -75
      vertex -64.0489 -27.191 -3
      vertex -64.0489 -27.191 -75
    endloop
  endfacet
  facet normal 0.156307 0.987708 -0
    outer loop
      vertex -64.691 -26.5489 -75
      vertex -65 -26.5 -3
      vertex -64.691 -26.5489 -3
    endloop
  endfacet
  facet normal 0.156307 0.987708 0
    outer loop
      vertex -65 -26.5 -3
      vertex -64.691 -26.5489 -75
      vertex -65 -26.5 -75
    endloop
  endfacet
  facet normal -0.707107 0.707107 0
    outer loop
      vertex -65.809 -26.9122 -75
      vertex -65.5878 -26.691 -3
      vertex -65.5878 -26.691 -75
    endloop
  endfacet
  facet normal -0.707107 0.707107 0
    outer loop
      vertex -65.5878 -26.691 -3
      vertex -65.809 -26.9122 -75
      vertex -65.809 -26.9122 -3
    endloop
  endfacet
  facet normal -0.890949 0.454103 0
    outer loop
      vertex -65.9511 -27.191 -75
      vertex -65.809 -26.9122 -3
      vertex -65.809 -26.9122 -75
    endloop
  endfacet
  facet normal -0.890949 0.454103 0
    outer loop
      vertex -65.809 -26.9122 -3
      vertex -65.9511 -27.191 -75
      vertex -65.9511 -27.191 -3
    endloop
  endfacet
  facet normal -0.454103 0.890949 0
    outer loop
      vertex -65.309 -26.5489 -75
      vertex -65.5878 -26.691 -3
      vertex -65.309 -26.5489 -3
    endloop
  endfacet
  facet normal -0.454103 0.890949 0
    outer loop
      vertex -65.5878 -26.691 -3
      vertex -65.309 -26.5489 -75
      vertex -65.5878 -26.691 -75
    endloop
  endfacet
  facet normal 0.987708 -0.156307 0
    outer loop
      vertex -64.0489 -27.809 -3
      vertex -64 -27.5 -75
      vertex -64 -27.5 -3
    endloop
  endfacet
  facet normal 0.987708 -0.156307 0
    outer loop
      vertex -64 -27.5 -75
      vertex -64.0489 -27.809 -3
      vertex -64.0489 -27.809 -75
    endloop
  endfacet
  facet normal 0 0 -1
    outer loop
      vertex -64.0489 -27.809 -75
      vertex -64.0489 -27.191 -75
      vertex -64 -27.5 -75
    endloop
  endfacet
  facet normal 0 0 -1
    outer loop
      vertex -64.191 -28.0878 -75
      vertex -64.0489 -27.191 -75
      vertex -64.0489 -27.809 -75
    endloop
  endfacet
  facet normal 0 0 -1
    outer loop
      vertex -64.191 -28.0878 -75
      vertex -64.191 -26.9122 -75
      vertex -64.0489 -27.191 -75
    endloop
  endfacet
  facet normal 0 0 -1
    outer loop
      vertex -64.4122 -28.309 -75
      vertex -64.191 -26.9122 -75
      vertex -64.191 -28.0878 -75
    endloop
  endfacet
  facet normal 0 0 -1
    outer loop
      vertex -64.4122 -28.309 -75
      vertex -64.4122 -26.691 -75
      vertex -64.191 -26.9122 -75
    endloop
  endfacet
  facet normal 0 0 -1
    outer loop
      vertex -64.691 -28.4511 -75
      vertex -64.4122 -26.691 -75
      vertex -64.4122 -28.309 -75
    endloop
  endfacet
  facet normal 0 0 -1
    outer loop
      vertex -64.691 -28.4511 -75
      vertex -64.691 -26.5489 -75
      vertex -64.4122 -26.691 -75
    endloop
  endfacet
  facet normal 0 0 -1
    outer loop
      vertex -65 -28.5 -75
      vertex -64.691 -26.5489 -75
      vertex -64.691 -28.4511 -75
    endloop
  endfacet
  facet normal 0 0 -1
    outer loop
      vertex -65 -28.5 -75
      vertex -65 -26.5 -75
      vertex -64.691 -26.5489 -75
    endloop
  endfacet
  facet normal 0 0 -1
    outer loop
      vertex -65.309 -28.4511 -75
      vertex -65 -26.5 -75
      vertex -65 -28.5 -75
    endloop
  endfacet
  facet normal 0 0 -1
    outer loop
      vertex -65.309 -28.4511 -75
      vertex -65.309 -26.5489 -75
      vertex -65 -26.5 -75
    endloop
  endfacet
  facet normal 0 0 -1
    outer loop
      vertex -65.5878 -28.309 -75
      vertex -65.309 -26.5489 -75
      vertex -65.309 -28.4511 -75
    endloop
  endfacet
  facet normal 0 0 -1
    outer loop
      vertex -65.5878 -28.309 -75
      vertex -65.5878 -26.691 -75
      vertex -65.309 -26.5489 -75
    endloop
  endfacet
  facet normal 0 0 -1
    outer loop
      vertex -65.809 -28.0878 -75
      vertex -65.5878 -26.691 -75
      vertex -65.5878 -28.309 -75
    endloop
  endfacet
  facet normal 0 0 -1
    outer loop
      vertex -65.809 -28.0878 -75
      vertex -65.809 -26.9122 -75
      vertex -65.5878 -26.691 -75
    endloop
  endfacet
  facet normal 0 0 -1
    outer loop
      vertex -65.9511 -27.809 -75
      vertex -65.809 -26.9122 -75
      vertex -65.809 -28.0878 -75
    endloop
  endfacet
  facet normal 0 0 -1
    outer loop
      vertex -65.9511 -27.809 -75
      vertex -65.9511 -27.191 -75
      vertex -65.809 -26.9122 -75
    endloop
  endfacet
  facet normal 0 -0 -1
    outer loop
      vertex -65.9511 -27.191 -75
      vertex -65.9511 -27.809 -75
      vertex -66 -27.5 -75
    endloop
  endfacet
  facet normal 0.707107 0.707107 -0
    outer loop
      vertex -64.191 -26.9122 -75
      vertex -64.4122 -26.691 -3
      vertex -64.191 -26.9122 -3
    endloop
  endfacet
  facet normal 0.707107 0.707107 0
    outer loop
      vertex -64.4122 -26.691 -3
      vertex -64.191 -26.9122 -75
      vertex -64.4122 -26.691 -75
    endloop
  endfacet
  facet normal 0.707107 -0.707107 0
    outer loop
      vertex -64.4122 -28.309 -75
      vertex -64.191 -28.0878 -3
      vertex -64.4122 -28.309 -3
    endloop
  endfacet
  facet normal 0.707107 -0.707107 0
    outer loop
      vertex -64.191 -28.0878 -3
      vertex -64.4122 -28.309 -75
      vertex -64.191 -28.0878 -75
    endloop
  endfacet
  facet normal -0.890949 -0.454103 0
    outer loop
      vertex -65.809 -28.0878 -75
      vertex -65.9511 -27.809 -3
      vertex -65.9511 -27.809 -75
    endloop
  endfacet
  facet normal -0.890949 -0.454103 0
    outer loop
      vertex -65.9511 -27.809 -3
      vertex -65.809 -28.0878 -75
      vertex -65.809 -28.0878 -3
    endloop
  endfacet
  facet normal -0.987708 -0.156307 0
    outer loop
      vertex -65.9511 -27.809 -75
      vertex -66 -27.5 -3
      vertex -66 -27.5 -75
    endloop
  endfacet
  facet normal -0.987708 -0.156307 0
    outer loop
      vertex -66 -27.5 -3
      vertex -65.9511 -27.809 -75
      vertex -65.9511 -27.809 -3
    endloop
  endfacet
  facet normal 0.890949 -0.454103 0
    outer loop
      vertex -64.191 -28.0878 -3
      vertex -64.0489 -27.809 -75
      vertex -64.0489 -27.809 -3
    endloop
  endfacet
  facet normal 0.890949 -0.454103 0
    outer loop
      vertex -64.0489 -27.809 -75
      vertex -64.191 -28.0878 -3
      vertex -64.191 -28.0878 -75
    endloop
  endfacet
  facet normal -0.156307 -0.987708 0
    outer loop
      vertex -65.309 -28.4511 -75
      vertex -65 -28.5 -3
      vertex -65.309 -28.4511 -3
    endloop
  endfacet
  facet normal -0.156307 -0.987708 -0
    outer loop
      vertex -65 -28.5 -3
      vertex -65.309 -28.4511 -75
      vertex -65 -28.5 -75
    endloop
  endfacet
  facet normal -0.707107 -0.707107 0
    outer loop
      vertex -65.5878 -28.309 -75
      vertex -65.809 -28.0878 -3
      vertex -65.809 -28.0878 -75
    endloop
  endfacet
  facet normal -0.707107 -0.707107 0
    outer loop
      vertex -65.809 -28.0878 -3
      vertex -65.5878 -28.309 -75
      vertex -65.5878 -28.309 -3
    endloop
  endfacet
  facet normal -0.454103 -0.890949 0
    outer loop
      vertex -65.5878 -28.309 -75
      vertex -65.309 -28.4511 -3
      vertex -65.5878 -28.309 -3
    endloop
  endfacet
  facet normal -0.454103 -0.890949 -0
    outer loop
      vertex -65.309 -28.4511 -3
      vertex -65.5878 -28.309 -75
      vertex -65.309 -28.4511 -75
    endloop
  endfacet
  facet normal 0.987708 0.156307 0
    outer loop
      vertex 66 -27.5 -3
      vertex 65.9511 -27.191 -75
      vertex 65.9511 -27.191 -3
    endloop
  endfacet
  facet normal 0.987708 0.156307 0
    outer loop
      vertex 65.9511 -27.191 -75
      vertex 66 -27.5 -3
      vertex 66 -27.5 -75
    endloop
  endfacet
  facet normal -0.707107 -0.707107 0
    outer loop
      vertex 64.191 -28.0878 -75
      vertex 64.4122 -28.309 -3
      vertex 64.191 -28.0878 -3
    endloop
  endfacet
  facet normal -0.707107 -0.707107 -0
    outer loop
      vertex 64.4122 -28.309 -3
      vertex 64.191 -28.0878 -75
      vertex 64.4122 -28.309 -75
    endloop
  endfacet
  facet normal -0.156307 0.987708 0
    outer loop
      vertex 65 -26.5 -75
      vertex 64.691 -26.5489 -3
      vertex 65 -26.5 -3
    endloop
  endfacet
  facet normal -0.156307 0.987708 0
    outer loop
      vertex 64.691 -26.5489 -3
      vertex 65 -26.5 -75
      vertex 64.691 -26.5489 -75
    endloop
  endfacet
  facet normal -0.987708 -0.156307 0
    outer loop
      vertex 64.0489 -27.809 -75
      vertex 64 -27.5 -3
      vertex 64 -27.5 -75
    endloop
  endfacet
  facet normal -0.987708 -0.156307 0
    outer loop
      vertex 64 -27.5 -3
      vertex 64.0489 -27.809 -75
      vertex 64.0489 -27.809 -3
    endloop
  endfacet
  facet normal 0.707107 0.707107 0
    outer loop
      vertex 65.809 -26.9122 -3
      vertex 65.5878 -26.691 -75
      vertex 65.5878 -26.691 -3
    endloop
  endfacet
  facet normal 0.707107 0.707107 0
    outer loop
      vertex 65.5878 -26.691 -75
      vertex 65.809 -26.9122 -3
      vertex 65.809 -26.9122 -75
    endloop
  endfacet
  facet normal 0.890949 0.454103 0
    outer loop
      vertex 65.9511 -27.191 -3
      vertex 65.809 -26.9122 -75
      vertex 65.809 -26.9122 -3
    endloop
  endfacet
  facet normal 0.890949 0.454103 0
    outer loop
      vertex 65.809 -26.9122 -75
      vertex 65.9511 -27.191 -3
      vertex 65.9511 -27.191 -75
    endloop
  endfacet
  facet normal 0 0 -1
    outer loop
      vertex 65.9511 -27.809 -75
      vertex 65.9511 -27.191 -75
      vertex 66 -27.5 -75
    endloop
  endfacet
  facet normal 0 0 -1
    outer loop
      vertex 65.809 -28.0878 -75
      vertex 65.9511 -27.191 -75
      vertex 65.9511 -27.809 -75
    endloop
  endfacet
  facet normal 0 0 -1
    outer loop
      vertex 65.809 -28.0878 -75
      vertex 65.809 -26.9122 -75
      vertex 65.9511 -27.191 -75
    endloop
  endfacet
  facet normal 0 0 -1
    outer loop
      vertex 65.5878 -28.309 -75
      vertex 65.809 -26.9122 -75
      vertex 65.809 -28.0878 -75
    endloop
  endfacet
  facet normal 0 0 -1
    outer loop
      vertex 65.5878 -28.309 -75
      vertex 65.5878 -26.691 -75
      vertex 65.809 -26.9122 -75
    endloop
  endfacet
  facet normal 0 0 -1
    outer loop
      vertex 65.309 -28.4511 -75
      vertex 65.5878 -26.691 -75
      vertex 65.5878 -28.309 -75
    endloop
  endfacet
  facet normal 0 0 -1
    outer loop
      vertex 65.309 -28.4511 -75
      vertex 65.309 -26.5489 -75
      vertex 65.5878 -26.691 -75
    endloop
  endfacet
  facet normal 0 0 -1
    outer loop
      vertex 65 -28.5 -75
      vertex 65.309 -26.5489 -75
      vertex 65.309 -28.4511 -75
    endloop
  endfacet
  facet normal 0 0 -1
    outer loop
      vertex 65 -28.5 -75
      vertex 65 -26.5 -75
      vertex 65.309 -26.5489 -75
    endloop
  endfacet
  facet normal 0 0 -1
    outer loop
      vertex 64.691 -28.4511 -75
      vertex 65 -26.5 -75
      vertex 65 -28.5 -75
    endloop
  endfacet
  facet normal 0 0 -1
    outer loop
      vertex 64.691 -28.4511 -75
      vertex 64.691 -26.5489 -75
      vertex 65 -26.5 -75
    endloop
  endfacet
  facet normal 0 0 -1
    outer loop
      vertex 64.4122 -28.309 -75
      vertex 64.691 -26.5489 -75
      vertex 64.691 -28.4511 -75
    endloop
  endfacet
  facet normal 0 0 -1
    outer loop
      vertex 64.4122 -28.309 -75
      vertex 64.4122 -26.691 -75
      vertex 64.691 -26.5489 -75
    endloop
  endfacet
  facet normal 0 0 -1
    outer loop
      vertex 64.191 -28.0878 -75
      vertex 64.4122 -26.691 -75
      vertex 64.4122 -28.309 -75
    endloop
  endfacet
  facet normal 0 0 -1
    outer loop
      vertex 64.191 -28.0878 -75
      vertex 64.191 -26.9122 -75
      vertex 64.4122 -26.691 -75
    endloop
  endfacet
  facet normal 0 0 -1
    outer loop
      vertex 64.0489 -27.809 -75
      vertex 64.191 -26.9122 -75
      vertex 64.191 -28.0878 -75
    endloop
  endfacet
  facet normal 0 0 -1
    outer loop
      vertex 64.0489 -27.809 -75
      vertex 64.0489 -27.191 -75
      vertex 64.191 -26.9122 -75
    endloop
  endfacet
  facet normal 0 -0 -1
    outer loop
      vertex 64.0489 -27.191 -75
      vertex 64.0489 -27.809 -75
      vertex 64 -27.5 -75
    endloop
  endfacet
  facet normal -0.454103 0.890949 0
    outer loop
      vertex 64.691 -26.5489 -75
      vertex 64.4122 -26.691 -3
      vertex 64.691 -26.5489 -3
    endloop
  endfacet
  facet normal -0.454103 0.890949 0
    outer loop
      vertex 64.4122 -26.691 -3
      vertex 64.691 -26.5489 -75
      vertex 64.4122 -26.691 -75
    endloop
  endfacet
  facet normal 0.454103 0.890949 -0
    outer loop
      vertex 65.5878 -26.691 -75
      vertex 65.309 -26.5489 -3
      vertex 65.5878 -26.691 -3
    endloop
  endfacet
  facet normal 0.454103 0.890949 0
    outer loop
      vertex 65.309 -26.5489 -3
      vertex 65.5878 -26.691 -75
      vertex 65.309 -26.5489 -75
    endloop
  endfacet
  facet normal 0.156307 0.987708 -0
    outer loop
      vertex 65.309 -26.5489 -75
      vertex 65 -26.5 -3
      vertex 65.309 -26.5489 -3
    endloop
  endfacet
  facet normal 0.156307 0.987708 0
    outer loop
      vertex 65 -26.5 -3
      vertex 65.309 -26.5489 -75
      vertex 65 -26.5 -75
    endloop
  endfacet
  facet normal -0.987708 0.156307 0
    outer loop
      vertex 64 -27.5 -75
      vertex 64.0489 -27.191 -3
      vertex 64.0489 -27.191 -75
    endloop
  endfacet
  facet normal -0.987708 0.156307 0
    outer loop
      vertex 64.0489 -27.191 -3
      vertex 64 -27.5 -75
      vertex 64 -27.5 -3
    endloop
  endfacet
  facet normal -0.707107 0.707107 0
    outer loop
      vertex 64.4122 -26.691 -75
      vertex 64.191 -26.9122 -3
      vertex 64.4122 -26.691 -3
    endloop
  endfacet
  facet normal -0.707107 0.707107 0
    outer loop
      vertex 64.191 -26.9122 -3
      vertex 64.4122 -26.691 -75
      vertex 64.191 -26.9122 -75
    endloop
  endfacet
  facet normal -0.890949 0.454103 0
    outer loop
      vertex 64.0489 -27.191 -75
      vertex 64.191 -26.9122 -3
      vertex 64.191 -26.9122 -75
    endloop
  endfacet
  facet normal -0.890949 0.454103 0
    outer loop
      vertex 64.191 -26.9122 -3
      vertex 64.0489 -27.191 -75
      vertex 64.0489 -27.191 -3
    endloop
  endfacet
  facet normal 0.454103 -0.890949 0
    outer loop
      vertex 65.309 -28.4511 -75
      vertex 65.5878 -28.309 -3
      vertex 65.309 -28.4511 -3
    endloop
  endfacet
  facet normal 0.454103 -0.890949 0
    outer loop
      vertex 65.5878 -28.309 -3
      vertex 65.309 -28.4511 -75
      vertex 65.5878 -28.309 -75
    endloop
  endfacet
  facet normal 0.987708 -0.156307 0
    outer loop
      vertex 65.9511 -27.809 -3
      vertex 66 -27.5 -75
      vertex 66 -27.5 -3
    endloop
  endfacet
  facet normal 0.987708 -0.156307 0
    outer loop
      vertex 66 -27.5 -75
      vertex 65.9511 -27.809 -3
      vertex 65.9511 -27.809 -75
    endloop
  endfacet
  facet normal -0.890949 -0.454103 0
    outer loop
      vertex 64.191 -28.0878 -75
      vertex 64.0489 -27.809 -3
      vertex 64.0489 -27.809 -75
    endloop
  endfacet
  facet normal -0.890949 -0.454103 0
    outer loop
      vertex 64.0489 -27.809 -3
      vertex 64.191 -28.0878 -75
      vertex 64.191 -28.0878 -3
    endloop
  endfacet
  facet normal 0.707107 -0.707107 0
    outer loop
      vertex 65.5878 -28.309 -3
      vertex 65.809 -28.0878 -75
      vertex 65.809 -28.0878 -3
    endloop
  endfacet
  facet normal 0.707107 -0.707107 0
    outer loop
      vertex 65.809 -28.0878 -75
      vertex 65.5878 -28.309 -3
      vertex 65.5878 -28.309 -75
    endloop
  endfacet
  facet normal 0.890949 -0.454103 0
    outer loop
      vertex 65.809 -28.0878 -3
      vertex 65.9511 -27.809 -75
      vertex 65.9511 -27.809 -3
    endloop
  endfacet
  facet normal 0.890949 -0.454103 0
    outer loop
      vertex 65.9511 -27.809 -75
      vertex 65.809 -28.0878 -3
      vertex 65.809 -28.0878 -75
    endloop
  endfacet
  facet normal 0.156307 -0.987708 0
    outer loop
      vertex 65 -28.5 -75
      vertex 65.309 -28.4511 -3
      vertex 65 -28.5 -3
    endloop
  endfacet
  facet normal 0.156307 -0.987708 0
    outer loop
      vertex 65.309 -28.4511 -3
      vertex 65 -28.5 -75
      vertex 65.309 -28.4511 -75
    endloop
  endfacet
  facet normal -0.156307 -0.987708 0
    outer loop
      vertex 64.691 -28.4511 -75
      vertex 65 -28.5 -3
      vertex 64.691 -28.4511 -3
    endloop
  endfacet
  facet normal -0.156307 -0.987708 -0
    outer loop
      vertex 65 -28.5 -3
      vertex 64.691 -28.4511 -75
      vertex 65 -28.5 -75
    endloop
  endfacet
  facet normal -0.454103 -0.890949 0
    outer loop
      vertex 64.4122 -28.309 -75
      vertex 64.691 -28.4511 -3
      vertex 64.4122 -28.309 -3
    endloop
  endfacet
  facet normal -0.454103 -0.890949 -0
    outer loop
      vertex 64.691 -28.4511 -3
      vertex 64.4122 -28.309 -75
      vertex 64.691 -28.4511 -75
    endloop
  endfacet
  facet normal 0.987708 0.156307 0
    outer loop
      vertex -64 27.5 -3
      vertex -64.0489 27.809 -75
      vertex -64.0489 27.809 -3
    endloop
  endfacet
  facet normal 0.987708 0.156307 0
    outer loop
      vertex -64.0489 27.809 -75
      vertex -64 27.5 -3
      vertex -64 27.5 -75
    endloop
  endfacet
  facet normal -0.987708 0.156307 0
    outer loop
      vertex -66 27.5 -75
      vertex -65.9511 27.809 -3
      vertex -65.9511 27.809 -75
    endloop
  endfacet
  facet normal -0.987708 0.156307 0
    outer loop
      vertex -65.9511 27.809 -3
      vertex -66 27.5 -75
      vertex -66 27.5 -3
    endloop
  endfacet
  facet normal 0.156307 0.987708 -0
    outer loop
      vertex -64.691 28.4511 -75
      vertex -65 28.5 -3
      vertex -64.691 28.4511 -3
    endloop
  endfacet
  facet normal 0.156307 0.987708 0
    outer loop
      vertex -65 28.5 -3
      vertex -64.691 28.4511 -75
      vertex -65 28.5 -75
    endloop
  endfacet
  facet normal 0.156307 -0.987708 0
    outer loop
      vertex -65 26.5 -75
      vertex -64.691 26.5489 -3
      vertex -65 26.5 -3
    endloop
  endfacet
  facet normal 0.156307 -0.987708 0
    outer loop
      vertex -64.691 26.5489 -3
      vertex -65 26.5 -75
      vertex -64.691 26.5489 -75
    endloop
  endfacet
  facet normal 0.454103 -0.890949 0
    outer loop
      vertex -64.691 26.5489 -75
      vertex -64.4122 26.691 -3
      vertex -64.691 26.5489 -3
    endloop
  endfacet
  facet normal 0.454103 -0.890949 0
    outer loop
      vertex -64.4122 26.691 -3
      vertex -64.691 26.5489 -75
      vertex -64.4122 26.691 -75
    endloop
  endfacet
  facet normal 0.707107 0.707107 -0
    outer loop
      vertex -64.191 28.0878 -75
      vertex -64.4122 28.309 -3
      vertex -64.191 28.0878 -3
    endloop
  endfacet
  facet normal 0.707107 0.707107 0
    outer loop
      vertex -64.4122 28.309 -3
      vertex -64.191 28.0878 -75
      vertex -64.4122 28.309 -75
    endloop
  endfacet
  facet normal 0.890949 0.454103 0
    outer loop
      vertex -64.0489 27.809 -3
      vertex -64.191 28.0878 -75
      vertex -64.191 28.0878 -3
    endloop
  endfacet
  facet normal 0.890949 0.454103 0
    outer loop
      vertex -64.191 28.0878 -75
      vertex -64.0489 27.809 -3
      vertex -64.0489 27.809 -75
    endloop
  endfacet
  facet normal 0.454103 0.890949 -0
    outer loop
      vertex -64.4122 28.309 -75
      vertex -64.691 28.4511 -3
      vertex -64.4122 28.309 -3
    endloop
  endfacet
  facet normal 0.454103 0.890949 0
    outer loop
      vertex -64.691 28.4511 -3
      vertex -64.4122 28.309 -75
      vertex -64.691 28.4511 -75
    endloop
  endfacet
  facet normal -0.454103 0.890949 0
    outer loop
      vertex -65.309 28.4511 -75
      vertex -65.5878 28.309 -3
      vertex -65.309 28.4511 -3
    endloop
  endfacet
  facet normal -0.454103 0.890949 0
    outer loop
      vertex -65.5878 28.309 -3
      vertex -65.309 28.4511 -75
      vertex -65.5878 28.309 -75
    endloop
  endfacet
  facet normal -0.156307 0.987708 0
    outer loop
      vertex -65 28.5 -75
      vertex -65.309 28.4511 -3
      vertex -65 28.5 -3
    endloop
  endfacet
  facet normal -0.156307 0.987708 0
    outer loop
      vertex -65.309 28.4511 -3
      vertex -65 28.5 -75
      vertex -65.309 28.4511 -75
    endloop
  endfacet
  facet normal 0 0 -1
    outer loop
      vertex -64.0489 27.191 -75
      vertex -64.0489 27.809 -75
      vertex -64 27.5 -75
    endloop
  endfacet
  facet normal 0 0 -1
    outer loop
      vertex -64.191 26.9122 -75
      vertex -64.0489 27.809 -75
      vertex -64.0489 27.191 -75
    endloop
  endfacet
  facet normal 0 0 -1
    outer loop
      vertex -64.191 26.9122 -75
      vertex -64.191 28.0878 -75
      vertex -64.0489 27.809 -75
    endloop
  endfacet
  facet normal 0 0 -1
    outer loop
      vertex -64.4122 26.691 -75
      vertex -64.191 28.0878 -75
      vertex -64.191 26.9122 -75
    endloop
  endfacet
  facet normal 0 0 -1
    outer loop
      vertex -64.4122 26.691 -75
      vertex -64.4122 28.309 -75
      vertex -64.191 28.0878 -75
    endloop
  endfacet
  facet normal 0 0 -1
    outer loop
      vertex -64.691 26.5489 -75
      vertex -64.4122 28.309 -75
      vertex -64.4122 26.691 -75
    endloop
  endfacet
  facet normal 0 0 -1
    outer loop
      vertex -64.691 26.5489 -75
      vertex -64.691 28.4511 -75
      vertex -64.4122 28.309 -75
    endloop
  endfacet
  facet normal 0 0 -1
    outer loop
      vertex -65 26.5 -75
      vertex -64.691 28.4511 -75
      vertex -64.691 26.5489 -75
    endloop
  endfacet
  facet normal 0 0 -1
    outer loop
      vertex -65 26.5 -75
      vertex -65 28.5 -75
      vertex -64.691 28.4511 -75
    endloop
  endfacet
  facet normal 0 0 -1
    outer loop
      vertex -65.309 26.5489 -75
      vertex -65 28.5 -75
      vertex -65 26.5 -75
    endloop
  endfacet
  facet normal 0 0 -1
    outer loop
      vertex -65.309 26.5489 -75
      vertex -65.309 28.4511 -75
      vertex -65 28.5 -75
    endloop
  endfacet
  facet normal 0 0 -1
    outer loop
      vertex -65.5878 26.691 -75
      vertex -65.309 28.4511 -75
      vertex -65.309 26.5489 -75
    endloop
  endfacet
  facet normal 0 0 -1
    outer loop
      vertex -65.5878 26.691 -75
      vertex -65.5878 28.309 -75
      vertex -65.309 28.4511 -75
    endloop
  endfacet
  facet normal 0 0 -1
    outer loop
      vertex -65.809 26.9122 -75
      vertex -65.5878 28.309 -75
      vertex -65.5878 26.691 -75
    endloop
  endfacet
  facet normal 0 0 -1
    outer loop
      vertex -65.809 26.9122 -75
      vertex -65.809 28.0878 -75
      vertex -65.5878 28.309 -75
    endloop
  endfacet
  facet normal 0 0 -1
    outer loop
      vertex -65.9511 27.191 -75
      vertex -65.809 28.0878 -75
      vertex -65.809 26.9122 -75
    endloop
  endfacet
  facet normal 0 0 -1
    outer loop
      vertex -65.9511 27.191 -75
      vertex -65.9511 27.809 -75
      vertex -65.809 28.0878 -75
    endloop
  endfacet
  facet normal 0 -0 -1
    outer loop
      vertex -65.9511 27.809 -75
      vertex -65.9511 27.191 -75
      vertex -66 27.5 -75
    endloop
  endfacet
  facet normal -0.707107 0.707107 0
    outer loop
      vertex -65.809 28.0878 -75
      vertex -65.5878 28.309 -3
      vertex -65.5878 28.309 -75
    endloop
  endfacet
  facet normal -0.707107 0.707107 0
    outer loop
      vertex -65.5878 28.309 -3
      vertex -65.809 28.0878 -75
      vertex -65.809 28.0878 -3
    endloop
  endfacet
  facet normal -0.890949 0.454103 0
    outer loop
      vertex -65.9511 27.809 -75
      vertex -65.809 28.0878 -3
      vertex -65.809 28.0878 -75
    endloop
  endfacet
  facet normal -0.890949 0.454103 0
    outer loop
      vertex -65.809 28.0878 -3
      vertex -65.9511 27.809 -75
      vertex -65.9511 27.809 -3
    endloop
  endfacet
  facet normal 0.987708 -0.156307 0
    outer loop
      vertex -64.0489 27.191 -3
      vertex -64 27.5 -75
      vertex -64 27.5 -3
    endloop
  endfacet
  facet normal 0.987708 -0.156307 0
    outer loop
      vertex -64 27.5 -75
      vertex -64.0489 27.191 -3
      vertex -64.0489 27.191 -75
    endloop
  endfacet
  facet normal -0.987708 -0.156307 0
    outer loop
      vertex -65.9511 27.191 -75
      vertex -66 27.5 -3
      vertex -66 27.5 -75
    endloop
  endfacet
  facet normal -0.987708 -0.156307 0
    outer loop
      vertex -66 27.5 -3
      vertex -65.9511 27.191 -75
      vertex -65.9511 27.191 -3
    endloop
  endfacet
  facet normal 0.707107 -0.707107 0
    outer loop
      vertex -64.4122 26.691 -75
      vertex -64.191 26.9122 -3
      vertex -64.4122 26.691 -3
    endloop
  endfacet
  facet normal 0.707107 -0.707107 0
    outer loop
      vertex -64.191 26.9122 -3
      vertex -64.4122 26.691 -75
      vertex -64.191 26.9122 -75
    endloop
  endfacet
  facet normal -0.890949 -0.454103 0
    outer loop
      vertex -65.809 26.9122 -75
      vertex -65.9511 27.191 -3
      vertex -65.9511 27.191 -75
    endloop
  endfacet
  facet normal -0.890949 -0.454103 0
    outer loop
      vertex -65.9511 27.191 -3
      vertex -65.809 26.9122 -75
      vertex -65.809 26.9122 -3
    endloop
  endfacet
  facet normal 0.890949 -0.454103 0
    outer loop
      vertex -64.191 26.9122 -3
      vertex -64.0489 27.191 -75
      vertex -64.0489 27.191 -3
    endloop
  endfacet
  facet normal 0.890949 -0.454103 0
    outer loop
      vertex -64.0489 27.191 -75
      vertex -64.191 26.9122 -3
      vertex -64.191 26.9122 -75
    endloop
  endfacet
  facet normal -0.156307 -0.987708 0
    outer loop
      vertex -65.309 26.5489 -75
      vertex -65 26.5 -3
      vertex -65.309 26.5489 -3
    endloop
  endfacet
  facet normal -0.156307 -0.987708 -0
    outer loop
      vertex -65 26.5 -3
      vertex -65.309 26.5489 -75
      vertex -65 26.5 -75
    endloop
  endfacet
  facet normal -0.707107 -0.707107 0
    outer loop
      vertex -65.5878 26.691 -75
      vertex -65.809 26.9122 -3
      vertex -65.809 26.9122 -75
    endloop
  endfacet
  facet normal -0.707107 -0.707107 0
    outer loop
      vertex -65.809 26.9122 -3
      vertex -65.5878 26.691 -75
      vertex -65.5878 26.691 -3
    endloop
  endfacet
  facet normal -0.454103 -0.890949 0
    outer loop
      vertex -65.5878 26.691 -75
      vertex -65.309 26.5489 -3
      vertex -65.5878 26.691 -3
    endloop
  endfacet
  facet normal -0.454103 -0.890949 -0
    outer loop
      vertex -65.309 26.5489 -3
      vertex -65.5878 26.691 -75
      vertex -65.309 26.5489 -75
    endloop
  endfacet
  facet normal 0.987708 0.156307 0
    outer loop
      vertex 66 27.5 -3
      vertex 65.9511 27.809 -75
      vertex 65.9511 27.809 -3
    endloop
  endfacet
  facet normal 0.987708 0.156307 0
    outer loop
      vertex 65.9511 27.809 -75
      vertex 66 27.5 -3
      vertex 66 27.5 -75
    endloop
  endfacet
  facet normal -0.156307 0.987708 0
    outer loop
      vertex 65 28.5 -75
      vertex 64.691 28.4511 -3
      vertex 65 28.5 -3
    endloop
  endfacet
  facet normal -0.156307 0.987708 0
    outer loop
      vertex 64.691 28.4511 -3
      vertex 65 28.5 -75
      vertex 64.691 28.4511 -75
    endloop
  endfacet
  facet normal 0.454103 0.890949 -0
    outer loop
      vertex 65.5878 28.309 -75
      vertex 65.309 28.4511 -3
      vertex 65.5878 28.309 -3
    endloop
  endfacet
  facet normal 0.454103 0.890949 0
    outer loop
      vertex 65.309 28.4511 -3
      vertex 65.5878 28.309 -75
      vertex 65.309 28.4511 -75
    endloop
  endfacet
  facet normal 0.890949 0.454103 0
    outer loop
      vertex 65.9511 27.809 -3
      vertex 65.809 28.0878 -75
      vertex 65.809 28.0878 -3
    endloop
  endfacet
  facet normal 0.890949 0.454103 0
    outer loop
      vertex 65.809 28.0878 -75
      vertex 65.9511 27.809 -3
      vertex 65.9511 27.809 -75
    endloop
  endfacet
  facet normal 0.156307 0.987708 -0
    outer loop
      vertex 65.309 28.4511 -75
      vertex 65 28.5 -3
      vertex 65.309 28.4511 -3
    endloop
  endfacet
  facet normal 0.156307 0.987708 0
    outer loop
      vertex 65 28.5 -3
      vertex 65.309 28.4511 -75
      vertex 65 28.5 -75
    endloop
  endfacet
  facet normal -0.890949 0.454103 0
    outer loop
      vertex 64.0489 27.809 -75
      vertex 64.191 28.0878 -3
      vertex 64.191 28.0878 -75
    endloop
  endfacet
  facet normal -0.890949 0.454103 0
    outer loop
      vertex 64.191 28.0878 -3
      vertex 64.0489 27.809 -75
      vertex 64.0489 27.809 -3
    endloop
  endfacet
  facet normal 0 0 -1
    outer loop
      vertex 65.9511 27.191 -75
      vertex 65.9511 27.809 -75
      vertex 66 27.5 -75
    endloop
  endfacet
  facet normal 0 0 -1
    outer loop
      vertex 65.809 26.9122 -75
      vertex 65.9511 27.809 -75
      vertex 65.9511 27.191 -75
    endloop
  endfacet
  facet normal 0 0 -1
    outer loop
      vertex 65.809 26.9122 -75
      vertex 65.809 28.0878 -75
      vertex 65.9511 27.809 -75
    endloop
  endfacet
  facet normal 0 0 -1
    outer loop
      vertex 65.5878 26.691 -75
      vertex 65.809 28.0878 -75
      vertex 65.809 26.9122 -75
    endloop
  endfacet
  facet normal 0 0 -1
    outer loop
      vertex 65.5878 26.691 -75
      vertex 65.5878 28.309 -75
      vertex 65.809 28.0878 -75
    endloop
  endfacet
  facet normal 0 0 -1
    outer loop
      vertex 65.309 26.5489 -75
      vertex 65.5878 28.309 -75
      vertex 65.5878 26.691 -75
    endloop
  endfacet
  facet normal 0 0 -1
    outer loop
      vertex 65.309 26.5489 -75
      vertex 65.309 28.4511 -75
      vertex 65.5878 28.309 -75
    endloop
  endfacet
  facet normal 0 0 -1
    outer loop
      vertex 65 26.5 -75
      vertex 65.309 28.4511 -75
      vertex 65.309 26.5489 -75
    endloop
  endfacet
  facet normal 0 0 -1
    outer loop
      vertex 65 26.5 -75
      vertex 65 28.5 -75
      vertex 65.309 28.4511 -75
    endloop
  endfacet
  facet normal 0 0 -1
    outer loop
      vertex 64.691 26.5489 -75
      vertex 65 28.5 -75
      vertex 65 26.5 -75
    endloop
  endfacet
  facet normal 0 0 -1
    outer loop
      vertex 64.691 26.5489 -75
      vertex 64.691 28.4511 -75
      vertex 65 28.5 -75
    endloop
  endfacet
  facet normal 0 0 -1
    outer loop
      vertex 64.4122 26.691 -75
      vertex 64.691 28.4511 -75
      vertex 64.691 26.5489 -75
    endloop
  endfacet
  facet normal 0 0 -1
    outer loop
      vertex 64.4122 26.691 -75
      vertex 64.4122 28.309 -75
      vertex 64.691 28.4511 -75
    endloop
  endfacet
  facet normal 0 0 -1
    outer loop
      vertex 64.191 26.9122 -75
      vertex 64.4122 28.309 -75
      vertex 64.4122 26.691 -75
    endloop
  endfacet
  facet normal 0 0 -1
    outer loop
      vertex 64.191 26.9122 -75
      vertex 64.191 28.0878 -75
      vertex 64.4122 28.309 -75
    endloop
  endfacet
  facet normal 0 0 -1
    outer loop
      vertex 64.0489 27.191 -75
      vertex 64.191 28.0878 -75
      vertex 64.191 26.9122 -75
    endloop
  endfacet
  facet normal 0 0 -1
    outer loop
      vertex 64.0489 27.191 -75
      vertex 64.0489 27.809 -75
      vertex 64.191 28.0878 -75
    endloop
  endfacet
  facet normal 0 -0 -1
    outer loop
      vertex 64.0489 27.809 -75
      vertex 64.0489 27.191 -75
      vertex 64 27.5 -75
    endloop
  endfacet
  facet normal -0.987708 0.156307 0
    outer loop
      vertex 64 27.5 -75
      vertex 64.0489 27.809 -3
      vertex 64.0489 27.809 -75
    endloop
  endfacet
  facet normal -0.987708 0.156307 0
    outer loop
      vertex 64.0489 27.809 -3
      vertex 64 27.5 -75
      vertex 64 27.5 -3
    endloop
  endfacet
  facet normal -0.454103 0.890949 0
    outer loop
      vertex 64.691 28.4511 -75
      vertex 64.4122 28.309 -3
      vertex 64.691 28.4511 -3
    endloop
  endfacet
  facet normal -0.454103 0.890949 0
    outer loop
      vertex 64.4122 28.309 -3
      vertex 64.691 28.4511 -75
      vertex 64.4122 28.309 -75
    endloop
  endfacet
  facet normal 0.987708 -0.156307 0
    outer loop
      vertex 65.9511 27.191 -3
      vertex 66 27.5 -75
      vertex 66 27.5 -3
    endloop
  endfacet
  facet normal 0.987708 -0.156307 0
    outer loop
      vertex 66 27.5 -75
      vertex 65.9511 27.191 -3
      vertex 65.9511 27.191 -75
    endloop
  endfacet
  facet normal 0.454103 -0.890949 0
    outer loop
      vertex 65.309 26.5489 -75
      vertex 65.5878 26.691 -3
      vertex 65.309 26.5489 -3
    endloop
  endfacet
  facet normal 0.454103 -0.890949 0
    outer loop
      vertex 65.5878 26.691 -3
      vertex 65.309 26.5489 -75
      vertex 65.5878 26.691 -75
    endloop
  endfacet
  facet normal -0.156307 -0.987708 0
    outer loop
      vertex 64.691 26.5489 -75
      vertex 65 26.5 -3
      vertex 64.691 26.5489 -3
    endloop
  endfacet
  facet normal -0.156307 -0.987708 -0
    outer loop
      vertex 65 26.5 -3
      vertex 64.691 26.5489 -75
      vertex 65 26.5 -75
    endloop
  endfacet
  facet normal -0.890949 -0.454103 0
    outer loop
      vertex 64.191 26.9122 -75
      vertex 64.0489 27.191 -3
      vertex 64.0489 27.191 -75
    endloop
  endfacet
  facet normal -0.890949 -0.454103 0
    outer loop
      vertex 64.0489 27.191 -3
      vertex 64.191 26.9122 -75
      vertex 64.191 26.9122 -3
    endloop
  endfacet
  facet normal 0.707107 0.707107 0
    outer loop
      vertex 65.809 28.0878 -3
      vertex 65.5878 28.309 -75
      vertex 65.5878 28.309 -3
    endloop
  endfacet
  facet normal 0.707107 0.707107 0
    outer loop
      vertex 65.5878 28.309 -75
      vertex 65.809 28.0878 -3
      vertex 65.809 28.0878 -75
    endloop
  endfacet
  facet normal -0.987708 -0.156307 0
    outer loop
      vertex 64.0489 27.191 -75
      vertex 64 27.5 -3
      vertex 64 27.5 -75
    endloop
  endfacet
  facet normal -0.987708 -0.156307 0
    outer loop
      vertex 64 27.5 -3
      vertex 64.0489 27.191 -75
      vertex 64.0489 27.191 -3
    endloop
  endfacet
  facet normal -0.707107 0.707107 0
    outer loop
      vertex 64.4122 28.309 -75
      vertex 64.191 28.0878 -3
      vertex 64.4122 28.309 -3
    endloop
  endfacet
  facet normal -0.707107 0.707107 0
    outer loop
      vertex 64.191 28.0878 -3
      vertex 64.4122 28.309 -75
      vertex 64.191 28.0878 -75
    endloop
  endfacet
  facet normal 0.707107 -0.707107 0
    outer loop
      vertex 65.5878 26.691 -3
      vertex 65.809 26.9122 -75
      vertex 65.809 26.9122 -3
    endloop
  endfacet
  facet normal 0.707107 -0.707107 0
    outer loop
      vertex 65.809 26.9122 -75
      vertex 65.5878 26.691 -3
      vertex 65.5878 26.691 -75
    endloop
  endfacet
  facet normal 0.156307 -0.987708 0
    outer loop
      vertex 65 26.5 -75
      vertex 65.309 26.5489 -3
      vertex 65 26.5 -3
    endloop
  endfacet
  facet normal 0.156307 -0.987708 0
    outer loop
      vertex 65.309 26.5489 -3
      vertex 65 26.5 -75
      vertex 65.309 26.5489 -75
    endloop
  endfacet
  facet normal -0.707107 -0.707107 0
    outer loop
      vertex 64.191 26.9122 -75
      vertex 64.4122 26.691 -3
      vertex 64.191 26.9122 -3
    endloop
  endfacet
  facet normal -0.707107 -0.707107 -0
    outer loop
      vertex 64.4122 26.691 -3
      vertex 64.191 26.9122 -75
      vertex 64.4122 26.691 -75
    endloop
  endfacet
  facet normal 0.890949 -0.454103 0
    outer loop
      vertex 65.809 26.9122 -3
      vertex 65.9511 27.191 -75
      vertex 65.9511 27.191 -3
    endloop
  endfacet
  facet normal 0.890949 -0.454103 0
    outer loop
      vertex 65.9511 27.191 -75
      vertex 65.809 26.9122 -3
      vertex 65.809 26.9122 -75
    endloop
  endfacet
  facet normal -0.454103 -0.890949 0
    outer loop
      vertex 64.4122 26.691 -75
      vertex 64.691 26.5489 -3
      vertex 64.4122 26.691 -3
    endloop
  endfacet
  facet normal -0.454103 -0.890949 -0
    outer loop
      vertex 64.691 26.5489 -3
      vertex 64.4122 26.691 -75
      vertex 64.691 26.5489 -75
    endloop
  endfacet
endsolid OpenSCAD_Model
